<svg xmlns="http://www.w3.org/2000/svg" viewBox="0 0 360 360" fill="none" shape-rendering="auto" aria-hidden="true" width="512" height="512"><!-- Generated by DiceBear (https://dicebear.com) --><metadata xmlns:rdf="http://www.w3.org/1999/02/22-rdf-syntax-ns#" xmlns:xsi="http://www.w3.org/2001/XMLSchema-instance" xmlns:dc="http://purl.org/dc/elements/1.1/" xmlns:dcterms="http://purl.org/dc/terms/"><rdf:RDF><rdf:Description><dc:title>Avatar Illustration System</dc:title><dc:creator>Micah Lanier</dc:creator><dc:source xsi:type="dcterms:URI">https://www.figma.com/community/file/829741575478342595</dc:source><dcterms:license xsi:type="dcterms:URI">https://creativecommons.org/licenses/by/4.0/</dcterms:license><dc:rights>Remix of “Avatar Illustration System” (https://www.figma.com/community/file/829741575478342595) by “Micah Lanier”, licensed under “CC BY 4.0” (https://creativecommons.org/licenses/by/4.0/)</dc:rights></rdf:Description></rdf:RDF></metadata><defs><g id="head-standard-488d6f30"><path d="M140.05 297.55c-14.4-20-25.67-58.67-27-78l-68.5-29.5-28.5 107.5z" fill="#ac6651" stroke="black" stroke-width="4"/><path d="M116.42 241.74q-3.15.3-6.37.3c-30.78 0-56.05-21.56-58.76-49.09l61.76 26.6c.38 5.48 1.55 13.31 3.37 22.19" fill="black" style="mix-blend-mode:multiply"/><path d="M60.1 4.1a75.7 75.7 0 0 1 91.16 55.5l.05.23.02.06.05.2.05.2 16.4 68.42.08.34.08.34v.01l.1.4.14.64a75.72 75.72 0 0 1-147.25 35.28l-.2-.72L4.06 95.16 4 94.89A75.7 75.7 0 0 1 60.09 4.1Z" fill="#ac6651" stroke="black" stroke-width="4"/></g><g id="mouth-pucker-488d6f30"><path d="M38.87 16.8c4.16-2.32 21-5.3 21 1.5 0 8.5-11.5 8-11.5 8s13.04-3.15 10.5 6c-2.5 9-9.5 5.5-11.5 4.5" stroke="#000000" stroke-width="4"/></g><g id="eyebrows-down-488d6f30"><path d="M9.07 29.5c6.17 2.5 21.1 3 31.5-15M76.07 7c5.17 5.33 18.1 12.8 28.5 0" stroke="#000000" stroke-width="4" stroke-linecap="round"/></g><g id="hair-mrClean-488d6f30"><ellipse cx="172.85" cy="70.18" rx="6.86" ry="18.44" transform="rotate(117 172.85 70.18)" fill="#FCFDFF"/></g><g id="glasses-round-488d6f30"><circle cx="124.5" cy="28" r="26" stroke="#ffedef" stroke-width="4"/><circle cx="57.5" cy="37" r="26" stroke="#ffedef" stroke-width="4"/><path d="M99.5 35a8 8 0 0 0-16 0M32 39 2 44.5" stroke="#ffedef" stroke-width="4"/></g><g id="eyes-round-488d6f30"><ellipse cx="58.12" cy="36.93" rx="9" ry="10" transform="rotate(-6.78 58.12 36.93)" fill="#000000"/><ellipse cx="122.15" cy="26.92" rx="9" ry="10" transform="rotate(-6.28 122.15 26.92)" fill="#000000"/><use transform="scale(.95207 .90922)" href="#glasses-round-488d6f30"/></g><g id="nose-pointed-488d6f30"><path d="M6.9 0c0 14 7 25 7 25s-3.5 6-13.5 4" stroke="black" stroke-width="4"/></g><g id="ears-detached-488d6f30"><path d="m36 41.54-.53.57c-3.67 3.94-8.47 6.9-13.95 6.9-3.31 0-6.43-.5-8.86-1.88a9 9 0 0 1-4.6-7.08 8 8 0 0 1 .25-3.2c-3.55-3.12-5.7-7.81-6.22-14.18-.57-6.54 1.5-11.8 5.3-15.38 3.76-3.56 9.04-5.3 14.68-5.3 4.7 0 9.23 1.25 12.97 3.54l.95.59z" stroke="black" stroke-width="4"/><path d="M22.08 4c10.5 0 20 6.78 20 17q0 1-.1 1.97C41.41 32.94 32.62 47 21.5 47c-6.32 0-10.83-1.9-11.46-7.18a5.7 5.7 0 0 1 .68-3.6c-3.7-2.65-6.1-7.04-6.65-13.72-1-12 7.5-18.5 18-18.5" fill="#ac6651"/><path d="M26.5 12.5c-4-1.83-12.8-2.8-16 8" stroke="black" stroke-width="4"/><path d="M16 13c2.17 1.83 6.3 7.5 5.5 15.5" stroke="black" stroke-width="4"/></g><g id="clothes-crew-488d6f30"><path d="M136.98 16.94a86 86 0 0 1 23.8 3.35c6.87 1.84 13.83 4.31 21.75 6.13l.15.03.14.01c46.12 3.8 73.78 24.3 93.86 52.5H3.36c16.3-29.34 39.48-48.02 77.07-56.59 16.01-3.64 34.66-5.46 56.55-5.46Z" fill="#000000" stroke="black" stroke-width="4"/><path d="m68.91 24.58 9.16-19.6a1 1 0 0 1 1.25-.51c37.92 13.42 72.42 12.48 104.4 3.57a1 1 0 0 1 1.08.38l13.93 19.05a.98.98 0 0 1-.42 1.5c-33.6 13.2-96.66 10.95-128.9-3.07a1 1 0 0 1-.5-1.32Z" fill="#000000" stroke="black" stroke-width="4"/><path opacity=".75" d="m68.91 24.58 9.16-19.6a1 1 0 0 1 1.25-.51c37.92 13.42 72.42 12.48 104.4 3.57a1 1 0 0 1 1.08.38l13.93 19.05a.98.98 0 0 1-.42 1.5c-33.6 13.2-96.66 10.95-128.9-3.07a1 1 0 0 1-.5-1.32Z" fill="white" stroke="black" stroke-width="4"/></g><clipPath id="clip-488d6f30"><rect width="360" height="360" rx="0" ry="0"/></clipPath></defs><g clip-path="url(#clip-488d6f30)"><use transform="translate(93.95 44.95)" href="#head-standard-488d6f30"/><use transform="translate(157.13 182.89)" href="#mouth-pucker-488d6f30"/><use transform="translate(127.93 99)" href="#eyebrows-down-488d6f30"/><use transform="translate(24 -1)" href="#hair-mrClean-488d6f30"/><use transform="translate(100 111)" href="#eyes-round-488d6f30"/><use transform="rotate(-8 1175.7 -1254.11)" href="#nose-pointed-488d6f30"/><use transform="translate(85 155)" href="#ears-detached-488d6f30"/><use transform="translate(37.02 284)" href="#clothes-crew-488d6f30"/></g></svg>