<?xml version="1.0" encoding="UTF-8"?>
<svg width="40px" height="40px" viewBox="0 0 40 40" version="1.1" xmlns="http://www.w3.org/2000/svg" xmlns:xlink="http://www.w3.org/1999/xlink">
    <!-- Generator: Sketch 52.6 (67491) - http://www.bohemiancoding.com/sketch -->
    <title>site-logo-coderdocs</title>
    <desc>Created with Sketch.</desc>
    <g id="Page-1" stroke="none" stroke-width="1" fill="none" fill-rule="evenodd">
        <g id="site-logo-coderdocs">
            <g id="octagon-solid" fill="#28B76B">
                <path d="M28.1871345,1.0994152 C27.4853801,0.397660819 26.5341131,0 25.5438596,0 L14.3859649,0 C13.3957115,0 12.4444444,0.397660819 11.7426901,1.0994152 L1.0994152,11.7348928 C0.397660819,12.4366472 0,13.3879142 0,14.3781676 L0,25.5360624 C0,26.5263158 0.397660819,27.4775828 1.0994152,28.1793372 L11.7426901,38.8226121 C12.4444444,39.5243665 13.3957115,39.9220273 14.3859649,39.9220273 L25.5438596,39.9220273 C26.5341131,39.9220273 27.4853801,39.5243665 28.1871345,38.8226121 L38.8304094,28.1793372 C39.5321637,27.4775828 39.9298246,26.5263158 39.9298246,25.5360624 L39.9298246,14.3859649 C39.9298246,13.3957115 39.5321637,12.4444444 38.8304094,11.7426901 L28.1871345,1.0994152 Z" id="Path"></path>
            </g>
            <g id="code-regular" transform="translate(6.471735, 7.953216)" fill="#FFFFFF" fill-rule="nonzero">
                <path d="M10.9998511,23.9547848 L9.18254548,23.4257863 C8.98582684,23.3696095 8.8687324,23.1589464 8.92493773,22.9623275 L15.5196962,0.271569842 C15.5759016,0.0749509389 15.7866715,-0.0420841223 15.9833902,0.0140927071 L17.8006958,0.543091183 C17.9974144,0.599268013 18.1145089,0.809931123 18.0583036,1.00655003 L11.4635451,23.6973077 C11.4073397,23.898608 11.2012535,24.0109616 10.9998511,23.9547848 Z M7.10294834,18.2856064 L8.37693578,16.9279997 C8.52213288,16.7735135 8.50808155,16.5300805 8.35351689,16.3896385 L3.38402913,11.9844388 L8.35351689,7.57923906 C8.51276532,7.43879698 8.52213288,7.19536406 8.37693578,7.04087778 L7.10294834,5.68327107 C6.96243502,5.53346619 6.72356238,5.52410338 6.5736815,5.66454546 L0.119436322,11.7129174 C-0.0398121074,11.8627223 -0.0398121074,12.1108366 0.119436322,12.2606415 L6.5736815,18.3043321 C6.72356238,18.4447741 6.95775125,18.4354113 7.10294834,18.2856064 Z M20.4095598,18.3043321 L26.8591212,12.2606415 C27.0183696,12.1108366 27.0183696,11.8627223 26.8591212,11.7129174 L20.4095598,5.66454546 C20.2596789,5.52410338 20.0208063,5.52878479 19.8802929,5.68327107 L18.6063055,7.04087778 C18.4611084,7.19536406 18.4751597,7.43879698 18.6297244,7.57923906 L23.5992122,11.9844388 L18.6297244,16.3896385 C18.470476,16.5300805 18.4611084,16.7735135 18.6063055,16.9279997 L19.8802929,18.2856064 C20.02549,18.4354113 20.2596789,18.4447741 20.4095598,18.3043321 Z" id="Shape"></path>
            </g>
        </g>
    </g>
</svg>